<svg width="41" height="41" viewBox="0 0 41 41" fill="none" xmlns="http://www.w3.org/2000/svg">
<path fill-rule="evenodd" clip-rule="evenodd" d="M27.9456 13.7678C27.3076 13.2084 26.3899 13.2212 25.8634 13.3837C26.2084 12.9602 27.0116 12.6129 27.2484 12.5708C27.4287 12.6384 27.9455 13.1696 27.9455 13.7677L27.9456 13.7678ZM29.9828 11.4515C29.5632 9.20692 24.3468 10.6941 21.7198 9.74073C21.6694 10.395 22.5285 11.4435 23.3502 11.8315C21.9456 13.0505 20.6845 15.5066 20.4301 18.5072C20.1764 15.5066 18.9153 13.0505 17.5107 11.8315C18.3324 11.4435 19.1922 10.395 19.1412 9.74073C16.5142 10.6941 11.2977 9.20692 10.8774 11.4515C10.789 11.9265 11.0175 12.6505 11.2645 12.8585C11.3086 12.708 11.5392 12.2155 12.2664 12.1051C15.9415 11.5499 19.0099 17.214 16.2402 19.5041C16.198 19.5389 16.2217 19.6032 16.2789 19.6032H24.5826C24.6391 19.6032 24.663 19.5389 24.6215 19.5041C21.851 17.214 24.9194 11.5499 28.5945 12.1051C29.3223 12.2155 29.5521 12.708 29.5964 12.8585C29.8433 12.6505 30.0719 11.9265 29.9828 11.4514V11.4515ZM30.8766 6.29981C30.8106 6.08776 32.9655 6.08246 32.9655 7.43116C32.9655 8.33512 31.6765 8.76325 31.6765 9.70128C31.6765 10.1382 32.1466 10.4586 32.2908 10.4586C31.9588 8.95261 33.3315 9.74073 33.7022 10.0224C32.9655 7.99713 34.6239 8.00991 34.4607 7.08128C34.3471 6.43228 32.9057 6.62835 32.384 6.29981C31.4583 5.7171 30.3632 3.44967 29.6414 5.7171C30.9869 6.96627 30.204 8.80474 28.496 8.80474C28.496 8.80474 28.4864 9.07433 28.5021 9.09575C30.5393 8.99602 31.2494 7.4988 30.8767 6.29981H30.8766ZM7.1091 10.0224C7.47989 9.74073 8.85244 8.95261 8.52129 10.4586C8.66475 10.4586 9.13475 10.1382 9.13475 9.70128C9.13475 8.76325 7.84576 8.33512 7.84576 7.43116C7.84576 6.08239 10.0007 6.08776 9.93463 6.29981C9.56257 7.49874 10.2728 8.99608 12.3099 9.09575C12.3249 9.07433 12.3153 8.80474 12.3153 8.80474C10.6081 8.80474 9.82512 6.96615 11.1699 5.7171C10.4482 3.44967 9.35307 5.7171 8.42738 6.29981C7.90572 6.62841 6.46431 6.43228 6.35071 7.08128C6.18808 8.00991 7.84569 7.99719 7.10904 10.0224H7.1091ZM12.8935 13.7677C13.5322 13.2084 14.4498 13.2211 14.9757 13.3837C14.6321 12.9601 13.8275 12.6129 13.5914 12.5707C13.4112 12.6383 12.8936 13.1696 12.8936 13.7677L12.8935 13.7677ZM21.3994 1.21165L20.4056 0L19.4119 1.21165L20.4057 2.48684L21.3995 1.21165H21.3994ZM27.0723 4.87541L26.3655 4.01429L25.6595 4.87541L26.3655 5.71704L27.0723 4.87535V4.87541ZM32.8043 29.7653L31.9085 28.8172L31.0126 29.7653L31.9085 30.5968L32.8043 29.7651V29.7653ZM15.1524 4.87529L14.4457 4.01416L13.7396 4.87529L14.4457 5.71697L15.1524 4.87529H15.1524ZM13.1281 9.09562H15.7639C17.98 9.09562 18.9772 7.73547 19.2785 6.55591H21.5334C21.8347 7.73553 22.8311 9.09568 25.048 9.09568H27.6838C27.6838 9.09568 28.1449 8.47014 28.2604 8.1604C28.6768 7.04574 28.1449 6.52587 27.3688 6.52587L26.3655 7.43513L25.3622 6.52587C24.5861 6.52587 24.0542 7.04574 24.4705 8.1604C24.5235 8.30296 24.6508 8.51227 24.7711 8.69625C23.8358 8.56776 22.642 7.92757 22.3801 6.55591C22.3801 6.55591 23.0712 5.45806 23.2447 5.01382C23.8678 3.41623 23.072 2.76314 21.9081 2.76314L20.4056 4.52949L18.9031 2.76314C17.7393 2.76314 16.9434 3.41617 17.5672 5.01382C17.74 5.45813 18.4317 6.55598 18.4317 6.55598C18.1692 7.92764 16.9754 8.56782 16.0402 8.69632C16.1612 8.51233 16.2878 8.30296 16.3408 8.16047C16.7564 7.0458 16.2259 6.52593 15.449 6.52593L14.4458 7.43519L13.4425 6.52593C12.6658 6.52593 12.1352 7.0458 12.5509 8.16047C12.6664 8.4702 13.1283 9.09575 13.1283 9.09575L13.1281 9.09562ZM40.3789 17.2661C39.8701 17.5237 36.8854 18.9219 33.062 18.4048C33.1016 18.2224 33.1352 18.0387 33.1627 17.8541C35.7073 17.5497 37.7758 17.1182 39.094 16.3849C40.5966 15.5486 41.2537 13.5522 40.4952 12.0669C40.4756 12.0294 40.4212 12.0228 40.394 12.0541C39.9784 12.5326 37.365 15.3754 33.2478 16.2591C33.2373 16.0459 33.2177 15.8332 33.1893 15.6215C35.189 14.4875 37.1413 13.1807 38.0711 11.9859C39.4765 10.1794 39.3471 7.87528 38.0099 6.70039C37.996 6.68848 37.9777 6.68313 37.9596 6.6857C37.9415 6.68827 37.9253 6.69852 37.9153 6.71382C37.4923 7.4116 33.5322 13.8124 29.1843 16.5755C29.1313 16.6094 29.0778 16.6427 29.0239 16.6752C28.8993 16.7509 28.8858 16.9127 28.9919 17.0091C29.4931 17.4633 29.8047 18.0956 29.8047 18.7975C29.8047 20.0178 28.864 21.0327 27.6206 21.2528C26.9886 21.3752 26.0764 21.3397 25.2004 21.0501C25.1609 21.0374 25.1201 21.0634 25.1201 21.1029V24.9681C25.1201 25.0302 25.2147 25.0456 25.2371 24.986C25.7696 23.5751 27.364 23.2753 28.0613 23.2753C28.3123 24.7833 28.7605 26.0325 29.3428 26.7048C30.2908 27.7974 31.8391 27.782 32.5104 27.0267C32.5215 27.0142 32.5263 26.9973 32.5233 26.9808C32.5204 26.9644 32.5101 26.9502 32.4954 26.9423C32.101 26.7156 29.844 25.33 29.3923 23.0592C29.5707 22.9977 29.7447 22.9281 29.9114 22.8457C30.6399 24.0514 31.7003 25.1252 32.5539 25.5353C33.9878 26.2232 35.3006 25.8886 35.8828 24.8817C35.9039 24.8462 35.8781 24.8021 35.8352 24.7981C34.9482 24.7271 32.2261 23.947 31.067 22.0463C31.1997 21.9244 31.3296 21.7973 31.4507 21.6622C32.6634 22.5855 34.3783 23.4017 35.6061 23.5683C37.0426 23.7637 38.6703 23.3054 38.7098 21.6348C38.7105 21.6013 38.6805 21.5738 38.6453 21.576C38.1343 21.6066 34.7531 21.7539 32.3438 20.3709C32.4275 20.2118 32.5055 20.0498 32.5778 19.8852C32.5778 19.8852 36.2182 20.7456 37.9432 20.4605C39.6573 20.1776 40.6613 18.8997 40.4674 17.3101C40.462 17.2705 40.4158 17.2471 40.379 17.2659L40.3789 17.2661ZM8.23342 19.8854C8.30588 20.05 8.38414 20.212 8.46804 20.3711C6.05952 21.7534 2.67959 21.6075 2.16676 21.5761C2.1307 21.574 2.10078 21.6028 2.10142 21.6356C2.1417 23.3056 3.76869 23.7638 5.20517 23.5685C6.43235 23.4019 8.14782 22.5856 9.36055 21.6624C9.48234 21.7975 9.6116 21.9246 9.74413 22.0464C8.58445 23.947 5.863 24.7272 4.97599 24.7982C4.93315 24.8021 4.90797 24.8463 4.92842 24.8818C5.51069 25.8887 6.82347 26.2232 8.25803 25.5354C9.11104 25.1253 10.1714 24.0515 10.9 22.8459C11.0672 22.9281 11.2413 22.9977 11.4189 23.0593C10.9672 25.3301 8.71033 26.7157 8.31576 26.9423C8.30119 26.9504 8.29104 26.9646 8.28814 26.981C8.28523 26.9973 8.28989 27.0142 8.3008 27.0267C8.97218 27.7821 10.5211 27.7975 11.4691 26.7049C12.0515 26.0325 12.499 24.7834 12.75 23.2754C13.4478 23.2754 15.0415 23.5752 15.5741 24.9861C15.5973 25.0457 15.6918 25.0302 15.6918 24.9681V21.1029C15.6918 21.0635 15.6503 21.0374 15.6109 21.0501C14.7348 21.3397 13.8227 21.3753 13.1914 21.2528C11.9474 21.0328 11.0067 20.0178 11.0067 18.7975C11.0067 18.0955 11.3188 17.4626 11.8195 17.0084C11.9262 16.9127 11.912 16.7507 11.7881 16.6752C11.7338 16.6426 11.6798 16.6094 11.6263 16.5754C7.28113 13.8137 3.32304 7.41761 2.89657 6.71503C2.87675 6.68224 2.82919 6.67559 2.79991 6.70097C1.46469 7.87649 1.33478 10.18 2.74007 11.9858C3.66992 13.1806 5.62199 14.4873 7.62117 15.6214C7.59297 15.833 7.57369 16.0457 7.56338 16.2589C3.44955 15.3758 0.838249 12.5376 0.418555 12.056C0.390682 12.0232 0.334808 12.0299 0.315821 12.0674C-0.441097 13.5533 0.2159 15.5484 1.71714 16.3847C3.03536 17.118 5.10384 17.5495 7.64847 17.8539C7.67596 18.0385 7.70952 18.2222 7.74909 18.4046C3.92979 18.9211 0.946416 17.5262 0.433578 17.2665C0.395477 17.2471 0.349192 17.2712 0.344461 17.3114C0.151396 18.901 1.15457 20.1776 2.8687 20.4605C4.59299 20.7456 8.23342 19.8852 8.23342 19.8852V19.8854ZM31.9084 31.8178L30.582 30.7741C30.0528 31.0893 29.6637 31.5899 29.5127 32.1765C28.7149 32.2883 26.5395 31.8052 26.751 31.4848C29.1352 28.1315 27.3115 26.135 25.12 26.2461V28.4982C25.12 29.2214 24.4888 29.8074 23.7113 29.8074H22.1979C21.1123 29.8074 20.4056 30.8987 20.4056 30.8987C20.4056 30.8987 19.6989 29.8074 18.6133 29.8074H17.0999C16.3218 29.8074 15.6919 29.2214 15.6919 28.4982V26.2462C13.5003 26.1352 11.6753 28.1316 14.0602 31.4849C14.2697 31.802 12.0338 32.3098 10.985 32.1813C10.7088 31.8949 10.3102 31.7143 9.86393 31.7143C9.67424 31.7144 9.48607 31.7481 9.30819 31.814C9.30819 31.814 5.18695 27.9121 5.11145 27.874L5.14546 27.795C5.38008 27.3562 5.02099 26.8778 4.79385 26.9113C5.05769 26.5948 5.07003 25.2092 3.60618 24.8887C3.64901 25.167 3.67075 25.7351 3.67075 25.7351C3.67075 25.7351 2.541 25.1242 1.97369 25.6514C1.47517 26.2416 2.16695 27.312 2.16695 27.312C2.16695 27.312 1.58877 27.326 1.30378 27.3019C1.72283 28.719 3.12812 28.6186 3.43217 28.339C3.41235 28.5645 3.92058 28.8856 4.35108 28.628L4.54018 28.5363C4.57355 28.5811 8.5874 32.3734 8.5874 32.3734C8.40302 32.647 8.31531 32.9829 8.37579 33.3408C8.47104 33.9002 8.93709 34.3638 9.53226 34.4842C9.95253 34.5686 10.3477 34.4869 10.6647 34.3015L11.7272 35.2878C11.8218 35.3734 11.9497 35.4269 12.0924 35.4169C12.3523 35.3994 12.5468 35.1887 12.5271 34.9472C12.519 34.8381 12.4632 34.7446 12.3863 34.6736C12.3693 34.6548 11.3041 33.6659 11.3041 33.6659C12.1828 33.0497 13.8201 32.6156 15.1791 32.6156C15.4179 32.6156 15.5301 32.4136 15.4478 32.2154C14.8322 30.7348 16.1559 29.6624 17.5251 30.5355C18.1224 30.9162 18.7291 31.6662 19.1862 32.9173C16.9395 33.4613 14.1188 34.9598 13.5481 36.5957C13.3284 37.2274 14.0542 38.0884 14.9357 38.2617C14.9513 38.2652 14.9676 38.2622 14.981 38.2535C14.9944 38.2449 15.0038 38.2312 15.0071 38.2155C15.4676 35.7734 18.0938 33.9536 19.4604 33.6445C19.5291 33.8284 19.5066 33.7689 19.5753 33.9522C18.087 34.6561 16.6437 36.1407 16.2314 37.9056C16.0423 38.7138 16.9436 39.4424 17.6877 39.6419C17.7251 39.6519 17.7619 39.6258 17.7639 39.5897C17.9054 37.3577 18.891 35.4623 19.7739 34.5999C19.7981 34.7684 19.8162 34.9378 19.8283 35.1077C19.8283 35.1077 18.9244 37.6267 18.9244 39.4646C18.9244 40.3195 20.195 40.9164 20.3827 41C20.6174 40.9164 21.8873 40.3195 21.8873 39.4646C21.8873 37.6266 20.9833 35.1077 20.9833 35.1077C20.9957 34.9378 21.0141 34.7684 21.0385 34.5999C21.9207 35.4623 22.9069 37.357 23.0477 39.5889C23.0498 39.6251 23.0872 39.6519 23.1238 39.6418C23.8687 39.4425 24.7693 38.7139 24.5809 37.9057C24.1679 36.1408 22.7253 34.6562 21.237 33.9523C21.305 33.769 21.2825 33.8285 21.3513 33.6445C22.7185 33.9536 25.3441 35.7734 25.8045 38.2154C25.8079 38.2311 25.8173 38.2447 25.8307 38.2534C25.8441 38.2621 25.8604 38.265 25.876 38.2617C26.7568 38.0884 27.484 37.2273 27.2629 36.5958C26.6936 34.9599 23.8721 33.4614 21.6254 32.9173C22.0832 31.6662 22.6899 30.9162 23.2871 30.5355C24.6557 29.6625 25.9793 30.735 25.3638 32.2156C25.2814 32.4136 25.393 32.6156 25.6324 32.6156C27.1696 32.6156 29.0633 33.1709 29.8128 33.9156C30.2917 34.6341 31.1766 35.0938 32.1752 34.9953C33.3097 34.8844 34.2349 34.0319 34.3627 32.9783C34.4743 32.0549 33.9968 31.226 33.2356 30.7744L31.9085 31.8181L31.9084 31.8178ZM22.1319 25.0919C22.6046 24.9167 23.3454 25.0585 23.3202 25.7409C23.3141 25.8954 23.5312 25.8954 23.5468 25.7375C23.6882 24.7159 22.9978 24.4214 22.2755 24.5412C22.1857 24.1899 22.1123 23.8829 22.0286 23.5785C21.962 23.3323 21.9374 22.8699 22.2225 22.8699C22.3762 22.8699 22.3143 23.3002 22.3001 23.4854C22.2871 23.648 22.3456 23.7464 22.4776 23.7511C22.56 23.7544 22.6627 23.6494 22.7239 23.5797C23.1375 23.1121 23.2334 22.3882 22.7491 22.0391C22.3438 21.7459 21.3288 21.9641 21.0498 22.3815C21.0078 22.2243 20.8064 21.9647 20.7097 21.8516C20.6159 21.7413 20.5915 21.6656 20.7214 21.5687C20.7826 21.5218 20.9676 21.3379 20.9676 21.1478C20.9676 21.0354 20.8805 20.828 20.6037 20.828C20.3854 20.828 20.1426 20.9792 20.1426 21.3164C20.1426 21.3914 20.1609 21.4718 20.2092 21.5581C20.0711 21.5352 19.6963 21.5446 19.5038 21.5921L22.1655 28.8961C22.9273 28.5201 23.4857 27.9247 23.4857 27.2858C23.4857 26.7411 22.6837 26.9218 22.294 27.3466C22.1688 26.6562 22.0572 26.0186 21.9355 25.3829C21.9023 25.2076 21.9913 25.1448 22.1321 25.0919L22.1319 25.0919ZM18.3684 20.1303L18.9275 21.6838C18.4487 21.7976 17.6787 22.1468 17.6787 22.609C17.6787 23.2247 18.7677 23.6254 19.3976 23.5772C19.3663 23.7177 19.4024 23.8428 19.5003 23.9572C19.2718 23.9572 18.8406 24.0636 18.699 24.2161C18.3651 23.905 17.8426 23.7919 17.5943 23.9813C17.3448 24.172 17.3373 24.4951 17.5978 24.8604C17.7794 25.1133 17.8474 25.3629 17.6434 25.6559C18.4025 25.6559 18.1228 24.6691 18.4201 24.6691C18.3814 24.8604 18.4052 25.0819 18.4916 25.3274C18.5487 25.4906 18.5487 25.6064 18.4508 25.7636C18.206 26.1551 17.8251 27.0542 17.8767 27.8671C17.6278 27.8657 17.5013 27.8048 17.589 27.465C17.6216 27.3384 17.5435 27.2482 17.4401 27.4041C17.3258 27.5761 17.2707 27.8698 17.2707 27.9954C17.2707 28.7194 18.1331 28.8653 18.4623 28.7121C19.4147 29.6336 21.2852 29.3878 21.9117 29.0787L18.6182 20.0419C18.5508 19.8713 18.3094 19.9529 18.3685 20.1302L18.3684 20.1303ZM18.2541 27.5741C18.1861 27.202 18.7037 26.537 19.3622 25.8954C19.222 26.3135 19.3091 27.0341 19.5839 27.2824C19.1063 27.2824 18.5391 27.372 18.2542 27.5741H18.2541Z" fill="white"/>
</svg>
