<svg width="51" height="51" viewBox="0 0 51 51" fill="none" xmlns="http://www.w3.org/2000/svg">
<rect width="51" height="51" fill="#43CE37"/>
<path fill-rule="evenodd" clip-rule="evenodd" d="M32.9456 18.7678C32.3076 18.2084 31.3899 18.2212 30.8634 18.3837C31.2084 17.9602 32.0116 17.6129 32.2484 17.5708C32.4287 17.6384 32.9455 18.1696 32.9455 18.7677L32.9456 18.7678ZM34.9828 16.4515C34.5632 14.2069 29.3468 15.6941 26.7198 14.7407C26.6694 15.395 27.5285 16.4435 28.3502 16.8315C26.9456 18.0505 25.6845 20.5066 25.4301 23.5072C25.1764 20.5066 23.9153 18.0505 22.5107 16.8315C23.3324 16.4435 24.1922 15.395 24.1412 14.7407C21.5142 15.6941 16.2977 14.2069 15.8774 16.4515C15.789 16.9265 16.0175 17.6505 16.2645 17.8585C16.3086 17.708 16.5392 17.2155 17.2664 17.1051C20.9415 16.5499 24.0099 22.214 21.2402 24.5041C21.198 24.5389 21.2217 24.6032 21.2789 24.6032H29.5826C29.6391 24.6032 29.663 24.5389 29.6215 24.5041C26.851 22.214 29.9194 16.5499 33.5945 17.1051C34.3223 17.2155 34.5521 17.708 34.5964 17.8585C34.8433 17.6505 35.0719 16.9265 34.9828 16.4514V16.4515ZM35.8766 11.2998C35.8106 11.0878 37.9655 11.0825 37.9655 12.4312C37.9655 13.3351 36.6765 13.7633 36.6765 14.7013C36.6765 15.1382 37.1466 15.4586 37.2908 15.4586C36.9588 13.9526 38.3315 14.7407 38.7022 15.0224C37.9655 12.9971 39.6239 13.0099 39.4607 12.0813C39.3471 11.4323 37.9057 11.6283 37.384 11.2998C36.4583 10.7171 35.3632 8.44967 34.6414 10.7171C35.9869 11.9663 35.204 13.8047 33.496 13.8047C33.496 13.8047 33.4864 14.0743 33.5021 14.0957C35.5393 13.996 36.2494 12.4988 35.8767 11.2998H35.8766ZM12.1091 15.0224C12.4799 14.7407 13.8524 13.9526 13.5213 15.4586C13.6647 15.4586 14.1348 15.1382 14.1348 14.7013C14.1348 13.7633 12.8458 13.3351 12.8458 12.4312C12.8458 11.0824 15.0007 11.0878 14.9346 11.2998C14.5626 12.4987 15.2728 13.9961 17.3099 14.0957C17.3249 14.0743 17.3153 13.8047 17.3153 13.8047C15.6081 13.8047 14.8251 11.9661 16.1699 10.7171C15.4482 8.44967 14.3531 10.7171 13.4274 11.2998C12.9057 11.6284 11.4643 11.4323 11.3507 12.0813C11.1881 13.0099 12.8457 12.9972 12.109 15.0224H12.1091ZM17.8935 18.7677C18.5322 18.2084 19.4498 18.2211 19.9757 18.3837C19.6321 17.9601 18.8275 17.6129 18.5914 17.5707C18.4112 17.6383 17.8936 18.1696 17.8936 18.7677L17.8935 18.7677ZM26.3994 6.21165L25.4056 5L24.4119 6.21165L25.4057 7.48684L26.3995 6.21165H26.3994ZM32.0723 9.87541L31.3655 9.01429L30.6595 9.87541L31.3655 10.717L32.0723 9.87535V9.87541ZM37.8043 34.7653L36.9085 33.8172L36.0126 34.7653L36.9085 35.5968L37.8043 34.7651V34.7653ZM20.1524 9.87529L19.4457 9.01416L18.7396 9.87529L19.4457 10.717L20.1524 9.87529H20.1524ZM18.1281 14.0956H20.7639C22.98 14.0956 23.9772 12.7355 24.2785 11.5559H26.5334C26.8347 12.7355 27.8311 14.0957 30.048 14.0957H32.6838C32.6838 14.0957 33.1449 13.4701 33.2604 13.1604C33.6768 12.0457 33.1449 11.5259 32.3688 11.5259L31.3655 12.4351L30.3622 11.5259C29.5861 11.5259 29.0542 12.0457 29.4705 13.1604C29.5235 13.303 29.6508 13.5123 29.7711 13.6963C28.8358 13.5678 27.642 12.9276 27.3801 11.5559C27.3801 11.5559 28.0712 10.4581 28.2447 10.0138C28.8678 8.41623 28.072 7.76314 26.9081 7.76314L25.4056 9.52949L23.9031 7.76314C22.7393 7.76314 21.9434 8.41617 22.5672 10.0138C22.74 10.4581 23.4317 11.556 23.4317 11.556C23.1692 12.9276 21.9754 13.5678 21.0402 13.6963C21.1612 13.5123 21.2878 13.303 21.3408 13.1605C21.7564 12.0458 21.2259 11.5259 20.449 11.5259L19.4458 12.4352L18.4425 11.5259C17.6658 11.5259 17.1352 12.0458 17.5509 13.1605C17.6664 13.4702 18.1283 14.0957 18.1283 14.0957L18.1281 14.0956ZM45.3789 22.2661C44.8701 22.5237 41.8854 23.9219 38.062 23.4048C38.1016 23.2224 38.1352 23.0387 38.1627 22.8541C40.7073 22.5497 42.7758 22.1182 44.094 21.3849C45.5966 20.5486 46.2537 18.5522 45.4952 17.0669C45.4756 17.0294 45.4212 17.0228 45.394 17.0541C44.9784 17.5326 42.365 20.3754 38.2478 21.2591C38.2373 21.0459 38.2177 20.8332 38.1893 20.6215C40.189 19.4875 42.1413 18.1807 43.0711 16.9859C44.4765 15.1794 44.3471 12.8753 43.0099 11.7004C42.996 11.6885 42.9777 11.6831 42.9596 11.6857C42.9415 11.6883 42.9253 11.6985 42.9153 11.7138C42.4923 12.4116 38.5322 18.8124 34.1843 21.5755C34.1313 21.6094 34.0778 21.6427 34.0239 21.6752C33.8993 21.7509 33.8858 21.9127 33.9919 22.0091C34.4931 22.4633 34.8047 23.0956 34.8047 23.7975C34.8047 25.0178 33.864 26.0327 32.6206 26.2528C31.9886 26.3752 31.0764 26.3397 30.2004 26.0501C30.1609 26.0374 30.1201 26.0634 30.1201 26.1029V29.9681C30.1201 30.0302 30.2147 30.0456 30.2371 29.986C30.7696 28.5751 32.364 28.2753 33.0613 28.2753C33.3123 29.7833 33.7605 31.0325 34.3428 31.7048C35.2908 32.7974 36.8391 32.782 37.5104 32.0267C37.5215 32.0142 37.5263 31.9973 37.5233 31.9808C37.5204 31.9644 37.5101 31.9502 37.4954 31.9423C37.101 31.7156 34.844 30.33 34.3923 28.0592C34.5707 27.9977 34.7447 27.9281 34.9114 27.8457C35.6399 29.0514 36.7003 30.1252 37.5539 30.5353C38.9878 31.2232 40.3006 30.8886 40.8828 29.8817C40.9039 29.8462 40.8781 29.8021 40.8352 29.7981C39.9482 29.7271 37.2261 28.947 36.067 27.0463C36.1997 26.9244 36.3296 26.7973 36.4507 26.6622C37.6634 27.5855 39.3783 28.4017 40.6061 28.5683C42.0426 28.7637 43.6703 28.3054 43.7098 26.6348C43.7105 26.6013 43.6805 26.5738 43.6453 26.576C43.1343 26.6066 39.7531 26.7539 37.3438 25.3709C37.4275 25.2118 37.5055 25.0498 37.5778 24.8852C37.5778 24.8852 41.2182 25.7456 42.9432 25.4605C44.6573 25.1776 45.6613 23.8997 45.4674 22.3101C45.462 22.2705 45.4158 22.2471 45.379 22.2659L45.3789 22.2661ZM13.2334 24.8854C13.3059 25.05 13.3841 25.212 13.468 25.3711C11.0595 26.7534 7.67959 26.6075 7.16676 26.5761C7.1307 26.574 7.10078 26.6028 7.10142 26.6356C7.1417 28.3056 8.76869 28.7638 10.2052 28.5685C11.4324 28.4019 13.1478 27.5856 14.3606 26.6624C14.4823 26.7975 14.6116 26.9246 14.7441 27.0464C13.5845 28.947 10.863 29.7272 9.97599 29.7982C9.93315 29.8021 9.90797 29.8463 9.92842 29.8818C10.5107 30.8887 11.8235 31.2232 13.258 30.5354C14.111 30.1253 15.1714 29.0515 15.9 27.8459C16.0672 27.9281 16.2413 27.9977 16.4189 28.0593C15.9672 30.3301 13.7103 31.7157 13.3158 31.9423C13.3012 31.9504 13.291 31.9646 13.2881 31.981C13.2852 31.9973 13.2899 32.0142 13.3008 32.0267C13.9722 32.7821 15.5211 32.7975 16.4691 31.7049C17.0515 31.0325 17.499 29.7834 17.75 28.2754C18.4478 28.2754 20.0415 28.5752 20.5741 29.9861C20.5973 30.0457 20.6918 30.0302 20.6918 29.9681V26.1029C20.6918 26.0635 20.6503 26.0374 20.6109 26.0501C19.7348 26.3397 18.8227 26.3753 18.1914 26.2528C16.9474 26.0328 16.0067 25.0178 16.0067 23.7975C16.0067 23.0955 16.3188 22.4626 16.8195 22.0084C16.9262 21.9127 16.912 21.7507 16.7881 21.6752C16.7338 21.6426 16.6798 21.6094 16.6263 21.5754C12.2811 18.8137 8.32304 12.4176 7.89657 11.715C7.87675 11.6822 7.82919 11.6756 7.79991 11.701C6.46469 12.8765 6.33478 15.18 7.74007 16.9858C8.66992 18.1806 10.622 19.4873 12.6212 20.6214C12.593 20.833 12.5737 21.0457 12.5634 21.2589C8.44955 20.3758 5.83825 17.5376 5.41856 17.056C5.39068 17.0232 5.33481 17.0299 5.31582 17.0674C4.5589 18.5533 5.2159 20.5484 6.71714 21.3847C8.03536 22.118 10.1038 22.5495 12.6485 22.8539C12.676 23.0385 12.7095 23.2222 12.7491 23.4046C8.92979 23.9211 5.94642 22.5262 5.43358 22.2665C5.39548 22.2471 5.34919 22.2712 5.34446 22.3114C5.1514 23.901 6.15457 25.1776 7.8687 25.4605C9.59299 25.7456 13.2334 24.8852 13.2334 24.8852V24.8854ZM36.9084 36.8178L35.582 35.7741C35.0528 36.0893 34.6637 36.5899 34.5127 37.1765C33.7149 37.2883 31.5395 36.8052 31.751 36.4848C34.1352 33.1315 32.3115 31.135 30.12 31.2461V33.4982C30.12 34.2214 29.4888 34.8074 28.7113 34.8074H27.1979C26.1123 34.8074 25.4056 35.8987 25.4056 35.8987C25.4056 35.8987 24.6989 34.8074 23.6133 34.8074H22.0999C21.3218 34.8074 20.6919 34.2214 20.6919 33.4982V31.2462C18.5003 31.1352 16.6753 33.1316 19.0602 36.4849C19.2697 36.802 17.0338 37.3098 15.985 37.1813C15.7088 36.8949 15.3102 36.7143 14.8639 36.7143C14.6742 36.7144 14.4861 36.7481 14.3082 36.814C14.3082 36.814 10.187 32.9121 10.1115 32.874L10.1455 32.795C10.3801 32.3562 10.021 31.8778 9.79385 31.9113C10.0577 31.5948 10.07 30.2092 8.60618 29.8887C8.64901 30.167 8.67075 30.7351 8.67075 30.7351C8.67075 30.7351 7.541 30.1242 6.97369 30.6514C6.47517 31.2416 7.16695 32.312 7.16695 32.312C7.16695 32.312 6.58877 32.326 6.30378 32.3019C6.72283 33.719 8.12812 33.6186 8.43217 33.339C8.41235 33.5645 8.92058 33.8856 9.35108 33.628L9.54018 33.5363C9.57355 33.5811 13.5874 37.3734 13.5874 37.3734C13.403 37.647 13.3153 37.9829 13.3758 38.3408C13.471 38.9002 13.9371 39.3638 14.5323 39.4842C14.9525 39.5686 15.3477 39.4869 15.6647 39.3015L16.7272 40.2878C16.8218 40.3734 16.9497 40.4269 17.0924 40.4169C17.3523 40.3994 17.5468 40.1887 17.5271 39.9472C17.519 39.8381 17.4632 39.7446 17.3863 39.6736C17.3693 39.6548 16.3041 38.6659 16.3041 38.6659C17.1828 38.0497 18.8201 37.6156 20.1791 37.6156C20.4179 37.6156 20.5301 37.4136 20.4478 37.2154C19.8322 35.7348 21.1559 34.6624 22.5251 35.5355C23.1224 35.9162 23.7291 36.6662 24.1862 37.9173C21.9395 38.4613 19.1188 39.9598 18.5481 41.5957C18.3284 42.2274 19.0542 43.0884 19.9357 43.2617C19.9513 43.2652 19.9676 43.2622 19.981 43.2535C19.9944 43.2449 20.0038 43.2312 20.0071 43.2155C20.4676 40.7734 23.0938 38.9536 24.4604 38.6445C24.5291 38.8284 24.5066 38.7689 24.5753 38.9522C23.087 39.6561 21.6437 41.1407 21.2314 42.9056C21.0423 43.7138 21.9436 44.4424 22.6877 44.6419C22.7251 44.6519 22.7619 44.6258 22.7639 44.5897C22.9054 42.3577 23.891 40.4623 24.7739 39.5999C24.7981 39.7684 24.8162 39.9378 24.8283 40.1077C24.8283 40.1077 23.9244 42.6267 23.9244 44.4646C23.9244 45.3195 25.195 45.9164 25.3827 46C25.6174 45.9164 26.8873 45.3195 26.8873 44.4646C26.8873 42.6266 25.9833 40.1077 25.9833 40.1077C25.9957 39.9378 26.0141 39.7684 26.0385 39.5999C26.9207 40.4623 27.9069 42.357 28.0477 44.5889C28.0498 44.6251 28.0872 44.6519 28.1238 44.6418C28.8687 44.4425 29.7693 43.7139 29.5809 42.9057C29.1679 41.1408 27.7253 39.6562 26.237 38.9523C26.305 38.769 26.2825 38.8285 26.3513 38.6445C27.7185 38.9536 30.3441 40.7734 30.8045 43.2154C30.8079 43.2311 30.8173 43.2447 30.8307 43.2534C30.8441 43.2621 30.8604 43.265 30.876 43.2617C31.7568 43.0884 32.484 42.2273 32.2629 41.5958C31.6936 39.9599 28.8721 38.4614 26.6254 37.9173C27.0832 36.6662 27.6899 35.9162 28.2871 35.5355C29.6557 34.6625 30.9793 35.735 30.3638 37.2156C30.2814 37.4136 30.393 37.6156 30.6324 37.6156C32.1696 37.6156 34.0633 38.1709 34.8128 38.9156C35.2917 39.6341 36.1766 40.0938 37.1752 39.9953C38.3097 39.8844 39.2349 39.0319 39.3627 37.9783C39.4743 37.0549 38.9968 36.226 38.2356 35.7744L36.9085 36.8181L36.9084 36.8178ZM27.1319 30.0919C27.6046 29.9167 28.3454 30.0585 28.3202 30.7409C28.3141 30.8954 28.5312 30.8954 28.5468 30.7375C28.6882 29.7159 27.9978 29.4214 27.2755 29.5412C27.1857 29.1899 27.1123 28.8829 27.0286 28.5785C26.962 28.3323 26.9374 27.8699 27.2225 27.8699C27.3762 27.8699 27.3143 28.3002 27.3001 28.4854C27.2871 28.648 27.3456 28.7464 27.4776 28.7511C27.56 28.7544 27.6627 28.6494 27.7239 28.5797C28.1375 28.1121 28.2334 27.3882 27.7491 27.0391C27.3438 26.7459 26.3288 26.9641 26.0498 27.3815C26.0078 27.2243 25.8064 26.9647 25.7097 26.8516C25.6159 26.7413 25.5915 26.6656 25.7214 26.5687C25.7826 26.5218 25.9676 26.3379 25.9676 26.1478C25.9676 26.0354 25.8805 25.828 25.6037 25.828C25.3854 25.828 25.1426 25.9792 25.1426 26.3164C25.1426 26.3914 25.1609 26.4718 25.2092 26.5581C25.0711 26.5352 24.6963 26.5446 24.5038 26.5921L27.1655 33.8961C27.9273 33.5201 28.4857 32.9247 28.4857 32.2858C28.4857 31.7411 27.6837 31.9218 27.294 32.3466C27.1688 31.6562 27.0572 31.0186 26.9355 30.3829C26.9023 30.2076 26.9913 30.1448 27.1321 30.0919L27.1319 30.0919ZM23.3684 25.1303L23.9275 26.6838C23.4487 26.7976 22.6787 27.1468 22.6787 27.609C22.6787 28.2247 23.7677 28.6254 24.3976 28.5772C24.3663 28.7177 24.4024 28.8428 24.5003 28.9572C24.2718 28.9572 23.8406 29.0636 23.699 29.2161C23.3651 28.905 22.8426 28.7919 22.5943 28.9813C22.3448 29.172 22.3373 29.4951 22.5978 29.8604C22.7794 30.1133 22.8474 30.3629 22.6434 30.6559C23.4025 30.6559 23.1228 29.6691 23.4201 29.6691C23.3814 29.8604 23.4052 30.0819 23.4916 30.3274C23.5487 30.4906 23.5487 30.6064 23.4508 30.7636C23.206 31.1551 22.8251 32.0542 22.8767 32.8671C22.6278 32.8657 22.5013 32.8048 22.589 32.465C22.6216 32.3384 22.5435 32.2482 22.4401 32.4041C22.3258 32.5761 22.2707 32.8698 22.2707 32.9954C22.2707 33.7194 23.1331 33.8653 23.4623 33.7121C24.4147 34.6336 26.2852 34.3878 26.9117 34.0787L23.6182 25.0419C23.5508 24.8713 23.3094 24.9529 23.3685 25.1302L23.3684 25.1303ZM23.2541 32.5741C23.1861 32.202 23.7037 31.537 24.3622 30.8954C24.222 31.3135 24.3091 32.0341 24.5839 32.2824C24.1063 32.2824 23.5391 32.372 23.2542 32.5741H23.2541Z" fill="white"/>
</svg>
